<?xml version="1.0" encoding="utf-8"?>
<!-- Generator: Adobe Illustrator 21.1.0, SVG Export Plug-In . SVG Version: 6.00 Build 0)  -->
<svg version="1.1" id="Layer_1" xmlns="http://www.w3.org/2000/svg" xmlns:xlink="http://www.w3.org/1999/xlink" x="0px" y="0px"
	 viewBox="0 0 2328.4 719.9" enable-background="new 0 0 2328.4 719.9" xml:space="preserve">
<g>
	<g>
		<path d="M1.3,728.9c0-243,0-485.9,0-728.9C777,0,1552.7,0,2328.4,0c0,243,0,485.9,0,728.9C1552.7,728.9,777,728.9,1.3,728.9z"/>
		<path fill="#FB022B" d="M1019.2,438.1c-14.7-0.3-29.5-0.6-44.2-0.9c-5.6-3.1-5.8-9.6-7.4-15c-8.8-29.1-16.7-58.5-24.9-87.7
			c-1.5-5.3-1.8-13.2-8.8-12.6c-5.4,0.4-6.6,7.2-7.9,12.2c-7.4,28.3-16.2,56.1-23.9,84.4c-1.9,7-2.7,15.4-10.1,19.1
			c-7.7,0.9-8.4-4.2-8.3-10.9c0.3-37.7,0.3-75.5,0.4-113.2c23.1-14.9,23.1-14.9,0-29.7c-0.1-45.5-0.3-91-0.3-136.5
			c0-11.5,0.2-11.7,10.5-11.8c41.4-0.1,82.7-0.1,124.1,0c10.9,0,11,0.2,11.1,13.1c0.1,62.7,0,125.3,0.1,188c0,7.1,0.3,14.2,0.5,21.3
			c4.1,11.4-0.7,22-3,32.6c-2.1,9.6-2.5,18.5,2.5,27c-0.1,5.7-0.2,11.3-0.3,17C1027.6,441.4,1023.6,440.3,1019.2,438.1z"/>
		<path fill="#F7F7F7" d="M1523,425.2c0.3,25.7-4.2,50.5-12.8,74.3c-16.2,44.6-69.4,55.1-97.9,19.4c-2.8-3.5-5.5-7.4-7.2-11.7
			c-18.5-47.2-22.8-95.5-7.5-144.6c6.9-22.1,19.3-39.4,40.7-46.6c24.9-8.3,50.5,1.4,65.4,24.8C1517.6,362.7,1522.4,388.7,1523,425.2
			z"/>
		<path fill="#2C7425" d="M883.9,283.8c2.1,0.1,4.3,0.3,6.4,0.3c16.6,0,15.5-1.5,15.6,15.4c0,11.9,2,13.9-12.3,13.5
			c-3.2-0.1-6.4,0.4-9.7,0.6c-7-0.2-14-0.2-20.9-0.5c-6.4-0.3-14.6,3.1-15.8-8.7c-9.4,0.4-12.1-8.5-18.7-14.8c0,6.7,0.1,13.4,0,20.1
			c-0.2,5.9,0.5,10.5,7.5,10.6c1.9,0,5.3,3,5.3,4.6c0.1,6.6,2.2,9.6,8.5,9.8c1.7,0.1,4.6,4.6,4.6,7.1c0.4,17.1,0.1,34.3,0.3,51.5
			c0.1,5.8-1.6,8.2-7.3,8.7c-25.2,2.1-25.2,2.3-25.2-26.2c0-4.1-0.1-8.3,0-12.4c0.1-6-1.7-9.6-7.6-11.6c-4.1-1.4-7.5-5.5-12.4-9.3
			c-3.8,3.1-6.5,12.1-14.9,10.4c-0.8-0.2-3.4,5.2-3.6,8.1c-0.5,8,1.6,17.4-10.4,16.5c-1.1,10.9-15.8,9-16.2,20.9
			c0,1.2-2.9,2.8-4.7,3.3c-2,0.6-4.3,0.2-6.4,0.2c-21.7,0.5-24.1-2.6-20.3-25.9c0.3-2,1.5-4.4,3-5.5c5.8-4.3,12.3-7.7,17.7-12.5
			c2.5-2.2,4.3-6.6,4.6-10.2c0.6-10,0.2-20.1,0.4-30.2c0.1-7.5,0.1-14.2-8.9-16c-1.7-0.3-3.6-5.1-3.8-8c-0.5-7-0.3-14.2-0.2-21.3
			c0.1-5.8-1.5-13.6,1.3-17.1c4.7-5.9,12.3-9.1,18.6-13.6c2-1.4,5.2-2.8,5.5-4.6c0.9-5.8,4.5-5.3,8.2-6.3c2.8-0.7,6.9-3.1,7.3-5.4
			c1-6.6,3.8-8.7,9.6-9.1c1.5-0.1,3.9-5,4-7.7c0.5-14.8,0.6-29.6,0.3-44.4c-0.2-8.1,1.7-11.7,9.8-11.5c18.3,0.6,36.6,0.6,54.9,0
			c8.1-0.3,10,3.2,9.8,11.4c-0.4,20.1-0.3,40.2,0,60.4c0.1,7.2-1.4,11.2-8.9,10.5c-5.2-0.5-10.4-0.1-18.1-0.1c3.4,3.4,4.9,6,6.5,6.2
			c6.3,0.6,8.1,4.2,7.7,10.6c-0.6,7.6,0.3,14.3,9.2,15.6c1.4,0.2,2.9,3,3.5,4.9C871.5,283.9,871.5,283.9,883.9,283.8z"/>
		<path fill="#E9E9E9" d="M460.1,407.1c0-17.8,0.2-35.5-0.1-53.3c-0.1-8.3-0.9-16.8-10.5-19c-5.5-1.3-7-6.3-5.5-10.7
			c0.9-2.6,5.5-5.2,8.5-5.3c26.3-0.7,52.7-1.2,79-0.7c8.4,0.2,17.2,2.4,25,6c6.1,2.8,11.6,8.4,15.8,14.1c2.7,3.7,2.7,9.8,3.9,14.8
			c-4.1,0.7-8.1,1.8-12.2,2.1c-4.8,0.4-9.7-0.2-14.5,0.2c-6.4,0.6-10.7-1.5-15-7.5c-3.7-5.3-9.7-9.6-15.4-11.9
			c-13.8-5.5-18-1.7-18.1,14.7c-0.1,20.1,0.2,40.3-0.1,60.4c-0.1,7.8,2.4,10.5,9.5,9.8c9.4-0.9,16.4-5.2,20.9-14.2
			c1.8-3.6,2.9-7.6,4.4-11.4c2.5-6.4,4-17.1,7.8-18.2c9.6-2.7,20.2-1.5,30.3-0.7c1.6,0.1,4.2,6.4,4.1,9.7c-0.9,15.6-8,27.7-19,37.5
			c-9,7.9-8.9,8.2-4.4,19.8c6.5,16.8,12.9,33.7,19.5,50.4c3.6,9.1,6.9,18.4,14.8,24.8c2.6,2.1,2.6,8.1,3.8,12.3
			c-3.4,0.9-6.7,2.5-10.1,2.7c-7,0.5-14.3-1.2-20.9,0.6c-8.2,2.3-11.3-1.7-14.2-8.7c-10.3-24.4-20.9-48.6-31.3-72.8
			c-1.4-3.2-2.2-6.8-4.2-9.5c-1.4-1.9-4.5-3.8-6.4-3.3c-1.9,0.4-4,3.4-4.8,5.7c-0.9,2.6-0.4,5.8-0.4,8.8
			c-0.3,18.4-0.3,18.4-17.8,18.4c-22.1,0-22.1,0-22.3-24.5C460.1,434.4,460.2,420.7,460.1,407.1
			C460.1,407.1,460.1,407.1,460.1,407.1z"/>
		<path fill="#E9E9E9" d="M1575.6,396.6c0,20.7,0,38.4,0,55.6c-1.3,1.3-2.1,2.7-2.9,2.7c-23,0.4-19.4,4.9-19.6-20.6
			c-0.2-28.4-0.3-56.8,0.1-85.2c0.1-7.7-1.3-12.3-8.7-13.8c-4.2-0.8-8.5-2.1-8.2-8.6c0.2-4.4,0.1-8.3,5.8-8.2
			c9.1,0.2,18.3,0.2,27.4-0.1c6.7-0.2,9,5.3,12.1,10.1c24.8,38.6,49.6,77.1,74.5,115.7c2.4,3.7,5.1,7.1,9.5,13.2
			c0-18.6,0.3-33.8-0.1-49c-0.2-7.2,2.6-9.1,8.6-8.9c12.4,0.4,13.7,1.4,13.7,14.8c0.1,36.1,0.2,72.2-0.1,108.3
			c0,4.6,3.3,12.3-3.9,13.2c-6.4,0.9-14.1,4-19.3-4.1c-1.9-2.9-3.8-5.8-5.6-8.6c-24-37-48.1-74-72.2-111
			C1583.8,407.5,1580.4,403.2,1575.6,396.6z"/>
		<path fill="#E9E9E9" d="M656.2,412.4c8.9,0,16.4-0.2,23.8,0.1c5.4,0.2,9.4-0.8,10.4-7.9c0.9-6.3,5.7-6.5,10.1-5.7
			c5.4,1,4.1,6,4.1,9.9c0.1,8.3,0.4,16.6-0.1,24.8c-0.2,2.9-2,7.2-4.1,8.1c-2.2,1-7.4-0.5-8.1-2.4c-7-17.4-20.7-6.9-31.1-9.2
			c-1-0.2-3.9,3.8-3.9,5.8c-0.3,24.3-0.5,48.5,0.1,72.8c0.1,3.6,5.1,6.8,6.8,10.8c1.5,3.3,2.8,7.7,2,11c-0.5,2-5,4-7.8,4
			c-17.2,0.3-34.4,0.3-51.6-0.1c-2.5-0.1-6.7-2.2-7.1-4.2c-1-4.2-1.7-10.2,4.5-11.2c10.5-1.6,10.7-10.5,10.7-18.6
			c0-49.7-0.5-99.3-0.6-149c0-8.5-1.3-15.2-9.9-17.2c-6.1-1.4-5.9-6.8-4.6-11c0.5-1.9,5-3.2,7.8-3.2c16.7-0.3,33.4-0.3,50,0
			c2.6,0.1,6.8,2.1,7.3,4.1c0.7,2.5-1,7.9-2.9,8.8c-5.8,2.8-5.8,7.7-5.8,13.1C656.2,367.4,656.2,388.7,656.2,412.4z"/>
		<path fill="#E9E9E9" d="M891.9,437.6c9.8-34.2,19.6-68.3,29.4-102.5c1.5-5.1,3.1-10,4.5-15.1c1.5-5.5,5.3-8,9.8-6.5
			c2.9,1,6.4,4.3,7.3,7.4c5.8,18.9,11.1,38,16.3,57.2c5.4,19.7,10.6,39.5,15.8,59.2c-6.8,9.8-13.9,19.5-20.4,29.6
			c-3.5,5.5-8,7.8-13.7,6.6c-3.2-0.7-8.2,1.7-8.9-4.7c-0.4-3.9-1.8-8.4,3.4-10.2c5.3-1.9,4.2-6.8,2.3-10.1
			c-4.1-7.4-8.6-14.6-13.7-21.2c-2.9-3.9-9.1-2.6-11.1,2c-2.5,5.7-4.8,11.5-6.7,17.4c-1.6,4.8-3.1,8.7,3,13.1c6,4.4,3.9,12.1-3.5,13
			c-7.8,1-9.6,5.9-11.1,12.5c-1.1,5.1-2.7,10.2-3.7,15.3c-1.5,7.3-4.6,14.8,4.4,19.7c1.9,1.1,3.3,6.5,2.6,9.2
			c-0.5,1.9-4.7,3.7-7.4,3.9c-8,0.5-16.1,0.4-24.1,0.1c-5.4-0.2-8.1-4.9-4.7-9.3C881.3,499.1,882.6,466.7,891.9,437.6z"/>
		<path fill="#E9E9E9" d="M1029.4,417.4c-11.1-4.4-11.6-4.8-9.3-15.3c3.1-14.8,6.6-29.5,9.9-44.3c3.3-4.6,6.5-9.4,9.9-13.9
			c13.6-18.4,31.6-28.4,52.8-30.3c18.3-1.7,36.4,0.8,54.2,6c8,2.3,10.5,6.4,9.6,15c-0.7,6.4-0.2,13,0,19.5
			c0.2,5.7,0.1,10.7-7.1,10.9c-5.9,0.1-9.7-0.3-10.7-8.9c-2-17-8.8-23.4-23.9-25.4c-17.1-2.3-33.1,6.1-39.2,23.8
			c-5.6,16.4-8.6,33.9-11.9,51.1c-2.2,11.4-1.5,11.6-11.6,11.7C1044.5,417.5,1037,417.4,1029.4,417.4z"/>
		<path fill="#F7F7F7" d="M1226.7,320c18.3,0,36.6,0.3,54.9-0.2c7.3-0.2,9.3,2.9,8.9,10.4c-0.5,8.3-0.3,16.6-0.1,24.9
			c0.1,5.5-2.6,7-6.9,7.4c-4.4,0.5-5-2-5.9-6c-4.4-19.1-4.5-18.6-23.1-18.4c-7.3,0.1-9.1,3-8.9,10.3c0.3,18.4-0.2,36.7,0.2,55.1
			c0.2,7-1.7,9.5-8.2,9c-9.6-0.7-19.2-0.6-28.9-0.9c-0.6-10.4-1.5-20.8-1.8-31.2c-0.3-11.2-0.2-22.5,0-33.8c0.1-5.7-1.3-9.1-7.2-8.5
			c-3.2,0.3-6.5,0-9.7,0.1c-12.9,0.1-12.9,0.1-15.1,13.7c-0.3,1.7,0.3,4.2-0.6,5.2c-2,2.1-4.4,4.4-7,5c-4.3,1.1-5.3-2.3-5.2-6.4
			c0.3-11.2,0.5-22.3,0.7-33.5c9.4-0.8,18.9-1.9,28.3-2.2C1203,319.7,1214.9,320,1226.7,320z"/>
		<path fill="#E9E9E9" d="M1019.2,438.1c3.3-1.2,6.6-2.5,9.9-3.7c8,0.2,16.1,1,24.1,0.6c6.9-0.3,8.9,2.8,10.2,9.9
			c2.9,15.5,6.3,31,11.1,45.9c7.9,24.5,22.7,33.7,46.4,29.6c11-1.9,21.7-5.3,32.6-8.1c3.6,14.4,3.5,16.3-4.9,19.6
			c-26.5,10.4-53.5,12.8-80.1,0.9c-28.3-12.7-39.4-39.8-45.6-70.2C1021.3,454.5,1020.4,446.3,1019.2,438.1z"/>
		<path fill="#E9E9E9" d="M1314.7,421.5c0-23.7-0.2-45.5,0.1-67.3c0.1-9.5-0.1-17.8-10.9-19.6c-1.5-0.2-3.6-1-4.2-2.2
			c-1.1-2.5-2.2-5.8-1.6-8.1c0.5-1.9,3.6-4.1,5.6-4.1c20.9-0.3,41.9-0.3,62.8,0c1.8,0,5,2.9,5,4.6c0.1,3-1.3,8.5-2.6,8.7
			c-13.9,2.2-12.6,13.2-12.4,24c0.3,15.4-0.3,30.8,0.4,46.1c0.4,7.8-2.6,10.7-8.8,11.7C1337.6,417.1,1327,419.2,1314.7,421.5z"/>
		<path fill="#F7F7F7" d="M1245.1,473.5c0,7.7,0.4,15.4-0.1,23.1c-0.6,10.6-0.2,20,11.8,22.5c5.7,1.2,6.2,6.6,4.9,11.1
			c-0.5,1.8-5.1,3-7.9,3.1c-18.3,0.3-36.6,0.2-54.8,0.1c-3.9,0-9.1,2-10.1-5.3c-0.8-6,1.8-8.7,7-9.2c6.9-0.7,8.5-6.2,8.7-12.5
			c0.6-14.7,1.6-29.4,1.5-44.2c-0.1-28.6-0.3-28.5,24.8-28.4c16,0.1,14.1-0.7,14.1,14.9C1245.1,457,1245.1,465.2,1245.1,473.5z"/>
		<path fill="#F7F7F7" d="M1355.5,434.8c0,23.8,0.4,45.6-0.2,67.3c-0.2,8.7,1,14.8,9.7,16.5c1.1,0.2,2.6,0.2,3,1
			c1.4,2.8,3.6,6,3.2,8.7c-0.3,2-4,4.8-6.2,4.9c-20.4,0.4-40.8,0.3-61.2,0c-2,0-5.6-2.5-5.6-3.9c-0.1-3,1.4-8.7,2.8-8.8
			c16.6-2.3,13.8-17.3,14.8-28.5c1.2-13.4,0.5-27.1,0.2-40.7c-0.1-7.3,2.4-10.3,9.1-11C1334.8,439.2,1344.2,436.9,1355.5,434.8z"/>
		<path fill="#E9E9E9" d="M983.1,460c3.8,11.7,7.5,20.8,9.7,30.3c2.6,11.1,6.1,21.1,14.1,29c2.3,2.3,2.7,7,3.9,10.6
			c-3.3,1.1-6.5,3.2-9.8,3.3c-16.6,0.3-33.3,0.2-49.9,0.1c-3.7,0-7.6,0.6-8.2-5.5c-0.5-5,1-7.4,5.4-9.1c2.5-0.9,6.2-4.3,6.1-6.4
			c-0.7-12.7,6.8-20.7,12.8-29.5C971.9,475.9,976.8,469.1,983.1,460z"/>
		<path fill="#E9E9E9" d="M498.3,494.3c0.8,4.5,1.5,7.9,1.8,11.3c0.8,6.8,2.3,12.2,9.7,14.2c2.2,0.6,3.3,6.1,4.9,9.4
			c-2.4,1.4-4.8,4-7.2,4.1c-18.8,0.3-37.7,0.3-56.5,0c-2.3,0-6.1-2.7-6.4-4.7c-0.4-2.7,1.3-8.2,2.9-8.6c10.3-2.8,13.5-9.9,13.3-20.7
			c0-1.6,4.4-4.5,6.9-4.7C477.7,494,487.9,494.3,498.3,494.3z"/>
		<path fill="#E9E9E9" d="M1677.9,318.6c6.4,0,12.9,0.5,19.3-0.2c5.6-0.6,7.7,2.3,8.7,7.6c1,5.2-0.9,7.9-5.6,8.4
			c-9.9,1.1-11.3,9.1-11.7,17.7c-0.2,4.1,0.3,8.3-0.3,12.4c-0.7,5,2.4,12.6-7.1,12.1c-11.3-0.6-13.5-1.7-14.5-11.3
			c-0.5-4.7-0.7-9.5-0.5-14.1c0.5-8.6-1.7-14.9-10.2-16.2c-7-1.1-6.8-6.5-6.2-11.9c0.7-6.3,5.4-4.3,8.8-4.4
			C1665,318.6,1671.5,318.7,1677.9,318.6C1677.9,318.7,1677.9,318.6,1677.9,318.6z"/>
		<path fill="#F7F7F7" d="M794.9,426.7c13.4,0,26.8,0.3,40.1-0.1c7.9-0.3,6.8,5.4,6.6,10.5c-0.2,4.6,2.4,11.1-5.9,11.1
			c-27.8-0.2-55.6-0.1-83.5-0.1c-8,0-5.8-6.4-6.1-11.2c-0.4-5.7-0.3-10.5,7.1-10.2C767,427,781,426.7,794.9,426.7z"/>
		<path fill="#E9E9E9" d="M1564.1,534.9c-7,0-14,0.5-20.9-0.3c-2.4-0.3-5.6-3.3-6.4-5.8c-1-3.6-1.3-8.9,4.2-9.4
			c11.4-0.8,11.8-9.4,11.7-18.8c-0.1-4.7,0.8-9.4,0.8-14.1c-0.1-7,1.8-10.5,9.1-10.4c12.4,0.2,12.5-0.4,12.6,12.8
			c0.1,4.7,0.4,9.5-0.1,14.1c-0.8,8.1,1.2,13.6,9.2,15.1c2.1,0.4,4.9,1,5.8,2.6c1.5,2.8,2.8,6.5,2.3,9.6c-0.2,1.8-3.7,3.9-6,4.3
			c-3.6,0.6-7.5-0.1-11.2-0.1c-3.7-0.1-7.5,0-11.2,0C1564.1,534.7,1564.1,534.8,1564.1,534.9z"/>
		<path fill="#E9E9E9" d="M722.1,510.8c0,22.7,0,22.7-21.4,22.6c-3.2,0-6.6,0.6-9.6-0.3c-1.9-0.5-4.7-3.3-4.6-4.8
			c0.2-3,2.6-8.6,3.3-8.4c17.8,3.7,16.8-11,18.5-22.7c1-6.8,5.5-6.9,9.5-6.1c1.8,0.4,3.6,4.5,4.1,7.2
			C722.6,502.4,722.1,506.6,722.1,510.8z"/>
		<path fill="#E9E9E9" d="M718.4,338.4c0,3.6,0.7,7.3-0.2,10.6c-0.7,2.6-3.2,5.9-5.3,6.3c-2.2,0.4-6.9-2.5-6.8-3.9
			c0.2-12.6-7.6-15.3-16.3-17.5c-1.5-0.4-3.7-0.8-4.3-2c-1.1-2.4-2-5.4-1.7-7.9c0.2-1.5,2.7-3.5,4.3-3.8c4.2-0.6,8.6-0.3,12.9-0.3
			C721.4,320.1,718.1,317.6,718.4,338.4z"/>
	</g>
</g>
</svg>
