<?xml version="1.0" encoding="utf-8"?>
<!-- Generator: Adobe Illustrator 21.1.0, SVG Export Plug-In . SVG Version: 6.00 Build 0)  -->
<svg version="1.1" id="Layer_1" xmlns="http://www.w3.org/2000/svg" xmlns:xlink="http://www.w3.org/1999/xlink" x="0px" y="0px"
	 viewBox="0 0 612 792" style="enable-background:new 0 0 612 792;" xml:space="preserve">
<style type="text/css">
	.st0{fill:#FEFEFE;}
	.st1{fill:#FE0025;}
	.st2{fill:#1F7722;}
	.st3{fill:#FDFDFD;}
	.st4{fill:#FEFDFD;}
	.st5{fill:#FCFCFC;}
	.st6{fill:#EDECEC;}
	.st7{fill:#EFEFEF;}
	.st8{fill:#FAFAFA;}
	.st9{fill:#F9F9F9;}
	.st10{fill:#FBFBFB;}
	.st11{fill:#FA072B;}
</style>
<g>
	<g>
		<path d="M667,302c0,69.3,0,138.7,0,208c-1.5,1.3-3.3,1.5-5.1,1.6c-1.8,0.1-3.7,0-5.5,0c-232.9,0-465.8,0-698.7,0
			c-3.6,0-7.4,0.9-10.6-1.6c0-69.3,0-138.7,0-208c1.5-1.3,3.3-1.5,5.1-1.6c1.8-0.1,3.7,0,5.5,0c232.9,0,465.8,0,698.7,0
			C660,300.4,663.8,299.5,667,302z"/>
		<path class="st0" d="M667,302c-240,0-480,0-720,0c0-48.3,0-96.7,0-145c240,0,480,0,720,0C667,205.3,667,253.7,667,302z"/>
		<path class="st0" d="M-53,510c240,0,480,0,720,0c0,42.3,0,84.7,0,127c-240,0-480,0-720,0C-53,594.7-53,552.3-53,510z"/>
		<path class="st1" d="M265,410.2c0,1.8-0.1,3.7-0.1,5.5c-0.8,1.2-1.7,1.1-2.7,0.4c-4.7-0.1-9.4-0.1-14-0.2c-2.1-1.7-2.1-4.4-3-6.7
			c-2.9-8.3-5.4-16.7-8.5-24.8c-3.1,0.3-3,2.5-3.5,4.1c-2.2,7.5-5,14.8-7,22.3c-0.5,2-0.8,4.4-3.3,5.2c-0.8,0-1.6-0.1-2.9-0.1
			c0-11.3,0-22.5,0-33.7c1.1-1.6,3.1-1.1,4.6-2.1c1-0.8,1-2.1,0.4-3.4c-1.2-1.8-3.9-0.8-5.1-2.7c0-13.1,0-26.2,0-39.6
			c15.1,0,29.8,0,45.1,0c0,20.6,0,41,0,61.5c1.3,2,0,3.9-0.4,5.7C264.1,404.4,263.4,407.3,265,410.2z"/>
		<path class="st0" d="M376.6,413.1c0.2-9.2,1.2-16,5.1-22.1c7.8-12,24.1-11.6,31.2,0.8c2.9,5.1,4.2,10.8,4.5,16.7
			c0.4,7.5,0.1,15-2.7,22.1c-3.9,10.3-13.2,15.3-22.9,12.6c-5.1-1.5-8.5-4.9-11-9.4C378.2,428.7,376.2,422.6,376.6,413.1z"/>
		<path class="st2" d="M220,373.9c2.1,0,4.2,0,6.5,0c0.8,2.7,0.4,5.1,0.4,7.7c-2.3,0.8-4.6,0.2-6.9,0.5c-3.5,0-7,0-9.9,0
			c-1.3-1.1-0.6-1.9-0.6-2.9c-1.3-0.1-2.6-0.3-3.8-0.4c-1.3-1-0.2-2.7-1.5-3.6c-0.9-0.2-2-0.2-2.1,0.7c-0.2,2.5-0.1,4.9-0.1,7.2
			c1.4,1.4,3.1,0.3,4.3,1.2c1,1.1,0.1,2.2,0.1,3.4c1.3,0.1,2.6,0.3,4.2,0.4c0,5.8,0,11.5,0,17.5c-3.1,0-6,0-9.2,0
			c-1.3-3.9,0.1-8.1-0.8-12c-1.3-1.3-3.1-0.1-4.2-1.1c-0.9-1-0.2-2.4-1.2-3.3c-2.4,0.1-0.6,2.7-2.4,3.5c-0.8,0.1-2.1,0.2-3.3,0.4
			c-1.2,2-0.2,4.1-0.8,6c-3.4,1.4-5.9,3.9-8.6,6.2c-1.2,0.9-2.7,0.6-4.2,0.6c-1.5,0-3,0.3-4.7-0.5c-0.6-2.1-0.1-4.4-0.4-7.2
			c3.8,0.9,4.1-4.3,7.8-3.6c0-5.2,0-10.1,0-15c-0.9-1.2-2.3-0.4-3.5-1.5c0-3.7,0-7.6,0-11.6c0.7-1.2,2.2-0.4,2.9-0.9
			c1.1-0.7,0.5-2.2,1.7-2.7c1-0.1,2.2-0.2,3.4-0.3c0-0.8,0-1.6,0-2.4c1.2-0.9,2.6-0.2,3.9-0.7c1.2-0.7,0.5-2.1,1.1-3.2
			c0.8-1,2.2-0.3,3.5-1.3c0-5,0-10.2,0-15.9c7.7,0,15.1,0,22.8,0c0,7,0,14,0,21.2c-2.7,1-5.7-0.2-8.5,0.9c0.6,2.7,3.4,0.6,4.5,2.3
			c0.7,1.5-0.1,3.4,0.7,6c0.3,0.9,2.2-0.3,3.2,0.9c0.2,0.9,0.5,2,0.7,3C217.1,374.2,218.6,374,220,373.9z"/>
		<path class="st3" d="M433.7,404.8c0,5.2,0,10.5,0,15.6c-2.3,0.8-4,0.7-6.3,0.1c0-5.3,0.1-10.6,0-15.9c-0.1-5.3,0.7-10.6-0.6-15.4
			c-1.4-1.8-3.2-1-4.4-1.8c-0.6-1.1-0.6-2.2,0-3.5c3.7,0,7.5,0,11.4,0c4.6,6.2,9.2,12.5,13.9,18.8c4.6,6.3,9.2,12.5,14.2,19.5
			c1.1-5.9-0.1-11.2,0.9-16.3c2-0.7,3.7-0.3,5.8,0.2c0,12.1,0,24.1,0,36.2c-1.9,0.8-3.7,0.4-6,0.4c-9.3-12.6-18.6-25.4-28-38.2
			C434.3,404.7,434,404.8,433.7,404.8z"/>
		<path class="st3" d="M110.3,428c-1.8-3.9-3.7-7.8-5.5-11.7c-1-0.6-2.1-0.4-3.6,0c0,3.1,0,6.2,0,9.5c-4,0-7.6,0-11.8,0
			c0-12.1,0-24,0-35.9c-1.4-2.1-3.6-1.7-5-2.3c-0.7-1.1-0.5-2.1-0.3-3.2c0.4-0.1,0.8-0.4,1.3-0.5c7.8-0.2,15.6,0.1,23.5-0.4
			c3.1-0.2,6.3,0.2,9.3,1.4c3.8,1.6,6.3,4.1,7,8.7c-3.8,1-7.4,0.3-11.3,0.5c-2.4-5-6.5-7.1-12.3-5.8c0,7.8,0,15.5,0,23.2
			c7.5,0.7,9.4-1,13-11.4c3.5,0,7.2-0.4,10.9,0.3c0.1,6.6-3.8,10.5-9,13.5c2.3,5.5,4.5,10.8,6.7,16.2c0.3,0.3,0.5,0.6,0.7,1
			c0.1,0.3,0.2,0.7,0.3,1C118.4,433.9,114.4,430.8,110.3,428z"/>
		<path class="st3" d="M132.1,384c6.8,0,13.3,0,19.6,0c0.8,1.1,0.5,2.1,0.3,3c-0.5,1.1-1.8,0.6-2.7,1.4c0,6.7,0,13.5,0,20.6
			c3.5,0.9,6.9,0.4,10.2-0.1c1.2-1,0.7-2.3,1.4-3.3c1-0.7,2.1-0.6,3.4,0c0.6,3.6,0.2,7.2,0.3,10.6c-1.2,1.3-2.3,1-3.4,0.7
			c-1.2-0.8-0.4-2.7-2.4-3.6c-2.6,0-5.7,0-9.6,0c0.1,7.7-0.5,15.4,0.6,22.9c0.9,2,4.7,2.1,2.5,5.5c-6.3,0-12.9,0-19.9,0
			c-0.9-0.6-0.2-1.8-0.2-3c1.1-1.3,3.4-0.2,4.9-2.9c0.6-14.8,0.7-30.7,0-45.9c-1.5-2.1-3.3-2-4.6-2.2
			C131.8,386.4,132,385.4,132.1,384z"/>
		<path class="st4" d="M222.9,416c3.8-10.2,6.6-20.8,10-31.1c0.3-0.8,0.4-1.6,1.1-2.3c1-0.6,2.1-0.5,3.2-0.1
			c0.2,0.3,0.5,0.5,0.6,0.8c3.3,9.9,6.6,19.8,9.9,29.7c0.3,0.9,0.3,2,0.4,2.9c-2.6,3.4-5.3,6.7-8,10.3c-1.5-0.1-3.1-0.1-4.6-0.2
			c-0.9-1.2-0.8-2.3-0.3-3.5c0.8-0.2,1.7-0.5,2.7-0.8c-0.7-1.9-1.4-3.8-2.1-5.6c-2.8-2.7-2.7-6.7-4.5-9.9c0-0.7-1.1,0-0.5-0.2
			c0.2,0,0.3,0.1,0.2,0.3c-0.4,3.5-0.7,6.9-3.3,9.6c-1.1,1.7-1.6,3.6-2,5.5c0.6,1.2,2,0.4,2.4,1.1c0.9,1.1,0.8,2,0.3,3
			c-1.2,1.3-2.9,0.2-4.4,1.1c-1.3,3.3-2.3,6.7-3,10c0.4,1.9,2.2,1.5,2.9,2.1c0.4,1.3,0.7,2.3-0.1,3.4c-3.5,0-7,0-10.5,0
			c-0.8-1-0.3-2-0.5-3.3c2.7-0.7,3.9-2.7,4.7-5.1C219.4,427.7,221.6,422,222.9,416z"/>
		<path class="st3" d="M345.7,384c0,4.1,0,7.7,0,11.1c-1.2,1.1-2.3,0.6-3.3,0.7c-1.1-2.2,0.2-4.7-1.8-6.6c-2.6-0.7-5.4-0.3-8.7-0.3
			c0,6.6,0,13,0,19.6c-4.1,0.9-7.6,0.3-11.7,0.5c0-6.8,0-13.2,0-20c-3.4-0.1-6.3-0.4-9.1,0.2c-2,1.8-0.5,4.3-1.5,6.2
			c-1.1,0.9-2.2,0.3-3.5,0.4c0-4.1,0-7.8,0-11.8C319.3,384,332.3,384,345.7,384z"/>
		<path class="st3" d="M265,410.2c-0.8-0.2-1.7,0-2.5-1.1c-0.4-4.5,1.4-8.9,2.7-13.3c8-13.8,19.3-14.9,33-12.3
			c1.9,0.4,4,0.3,5.8,1.9c0.2,3.5,0.3,7.1,0,10.7c-1.6,0.9-3,0.7-4.6,0c-0.2-3.4-0.5-6.8-4.5-8.4c-5.6-2.2-12.1-0.2-15.3,4.9
			c-2,3.3-3.1,6.9-3.6,10.8c-0.3,2.1-0.6,4.3-0.9,6.9C271.6,410.2,268.3,410.2,265,410.2z"/>
		<path class="st5" d="M262.2,416.1c0.9-0.1,1.8-0.2,2.7-0.4c3.3,0,6.6,0,9.7,0c1.6,3.5,1.1,6.8,2,9.8c3.1,11.4,10.6,15.7,21.9,12.2
			c1.7-0.5,3.4-1.3,5.3-2.1c0.7,1.6,0.5,3.1,0.1,5c-7.8,3.3-15.9,4.3-24.2,1.8c-9.4-2.9-14.2-9.9-16.4-19
			C262.6,421.1,262.5,418.5,262.2,416.1z"/>
		<path class="st3" d="M320.2,415c3.9,0,7.4,0,11.6,0c0,7.2,0,14.3,0,21.3c1.4,2.1,3.7,1.4,5,2.3c0.4,1.1,0.4,2.1,0,3.3
			c-7.2,0-14.4,0-21.7,0c-1-0.9-0.7-2-0.3-3.2c1.1-1.1,3-0.1,4.2-1.6C320.7,429.9,319.5,422.5,320.2,415z"/>
		<path class="st3" d="M352.9,389.1c-1.5-1.5-3.4-0.7-4.4-1.8c-0.3-1-0.4-1.9,0.1-3.1c7.3,0,14.7,0,22.1,0c0.8,1,0.4,2,0.3,3.1
			c-1.2,1.4-3.7,0.3-5,3.3c0,5.2,0,11.5,0,17.9c-3.8,2.2-7.9,1.8-11.8,2.8C353.2,403.7,354.7,396.3,352.9,389.1z"/>
		<path class="st3" d="M370.8,442c-7.6,0-14.9,0-22,0c-0.9-1-0.6-2-0.5-2.9c0.5-0.9,1.3-0.9,2.1-1c0.9-0.1,1.6-0.4,2.6-1.5
			c1.7-5.8,0.1-12.3,1-18.9c3.6-1,7.3-1.7,11.8-2.1c0,7.3,0,14.3,0,20.3c1.7,2.4,3.4,1.9,4.7,2.5C371.4,439.5,371.2,440.6,370.8,442
			z"/>
		<path class="st5" d="M238.8,441.9c-0.5-1.2-0.4-2-0.2-2.8c0.6-1.6,2.6-0.4,3.4-1.7c0.4-6.2,5.5-9.5,8.4-14.6
			c3.5,5.3,2.6,12.5,8.5,15.9c0.3,1,0.4,1.9-0.2,3.1C252.3,441.9,245.6,441.9,238.8,441.9z"/>
		<path class="st3" d="M177.5,413.1c9.9,0,19.3,0,29,0c0.9,1.6,0.2,3.5,0.4,5.5c-9.7,0-19.3,0-29.1,0
			C176.9,417.2,177.6,415.4,177.5,413.1z"/>
		<path class="st6" d="M84.2,441.8c-0.7-1-0.3-1.9-0.3-2.9c1.2-1.5,3.5-0.3,4.1-1.7c1.5-1.5,0.6-3.2,1.5-4.8c3.5-1.2,7.3-0.1,11-0.6
			c1.2,1.8,0,3.9,1.1,5c1,1.6,2.7,0.9,3.6,1.6c0.9,1,0.5,2,0.6,3.4C98.7,441.8,91.6,441.8,84.2,441.8z"/>
		<path class="st7" d="M110.3,428c3.2,1.1,6.4,2.1,9.4,3.4c1.4,0.6,2.8,0.5,4.2,0.6c1.7,2,2.6,4.6,5,6c1.5,0.9,0.9,2.3,0.9,3.8
			c-4.4,0.7-8.8,0.1-13.5,0.4C114.3,437.3,112.3,432.7,110.3,428z"/>
		<path class="st8" d="M462,389.6c-1.5-2-3.3-1.4-4.5-2.1c-0.6-1.2-0.6-2.3,0-3.5c5.4,0,10.8,0,16.2,0c0.8,1.2,0.6,2.2,0.1,3.5
			c-1.3,0.8-3.3,0.2-4.5,2.2c-0.9,2.9,0.1,6.5-0.8,10.1c-2-0.2-3.7-0.4-5.6-0.7C461.7,395.9,463.2,392.4,462,389.6z"/>
		<path class="st9" d="M422.4,441.9c-0.7-1.1-0.3-2.1-0.3-3c1.1-1.6,3.1-0.1,4.1-1.5c2.2-3,0.5-6.8,1.7-10.1
			c1.7-0.7,3.5-0.4,5.4-0.4c1.3,3.3-0.2,6.8,0.8,9.2c1.4,2.3,3.4,1.5,4.7,2.4c0.5,1.1,0.4,2,0.1,3.3
			C433.6,441.9,428.1,441.9,422.4,441.9z"/>
		<path class="st8" d="M159.4,438.3c1.8-0.1,3.4-0.2,5.1-0.4c1.7-1.9,0.7-4.5,1.8-6.5c1.1-0.5,2.2-0.5,3.5,0.1c0,3.3,0,6.7,0,10.4
			c-3.5,0-6.9,0-10.3,0C158.5,441,158.9,439.9,159.4,438.3z"/>
		<path class="st10" d="M158.5,387.4c-0.6-1.4-0.6-2.3,0.5-3.3c3,0,6.2,0,9.7,0c0.6,3.1,0.2,6.3,0.3,9.4c-1.2,1-2.3,0.7-3.5,0.5
			c-1.2-1.2,0-2.9-0.7-3.9C163.5,387.1,160.6,388.3,158.5,387.4z"/>
		<path class="st11" d="M227.9,415.8c0.4-4.1,2.4-7.8,3.5-12.4c2.2,4.4,3.5,8.4,4.5,12.5C233.2,415.9,230.5,415.9,227.9,415.8z"/>
		<path class="st7" d="M123.7,431c-0.5-0.2-0.7-0.5-0.7-1C123.5,430.1,123.8,430.4,123.7,431z"/>
	</g>
</g>
</svg>
